<?xml version='1.0' encoding='utf-8'?>
<svg xmlns="http://www.w3.org/2000/svg" width="64" height="72" viewBox="0 0 64 72"><defs>
    <style>
      text{font-family: system-ui, -apple-system, Segoe UI, Roboto, Arial, sans-serif; font-size:14px; fill:#111}
      .label{font-weight:600}
      .sub{font-size:12px; fill:#333}
    </style>

    
    <g id="pin-user-doctor">
      <path d="M32 6                C20 6 10 16 10 28                C10 44 32 70 32 70                C32 70 54 44 54 28                C54 16 44 6 32 6 Z" fill="#FFD200" stroke="#111" stroke-width="2" />

      
      <g transform="translate(22.4 17.0) scale(0.043)">
        <path fill="#111111" d="M224 8a120 120 0 1 0 0 240 120 120 0 1 0 0-240zm60 312.8c-5.4-.5-11-.8-16.6-.8l-86.9 0c-5.6 0-11.1 .3-16.6 .8l0 67.5c16.5 7.6 28 24.3 28 43.6 0 26.5-21.5 48-48 48s-48-21.5-48-48c0-19.4 11.5-36.1 28-43.6l0-58.4C61 353 16 413.6 16 484.6 16 499.7 28.3 512 43.4 512l361.1 0c15.1 0 27.4-12.3 27.4-27.4 0-71-45-131.5-108-154.6l0 37.4c23.3 8.2 40 30.5 40 56.6l0 32c0 11-9 20-20 20s-20-9-20-20l0-32c0-11-9-20-20-20s-20 9-20 20l0 32c0 11-9 20-20 20s-20-9-20-20l0-32c0-26.1 16.7-48.3 40-56.6l0-46.6z" />
      </g>
    </g>
    
    <pattern id="ma70-pattern-nef" x="0" y="0" width="50" height="25" patternUnits="userSpaceOnUse" patternTransform="skewX(-15)">
      
      <polygon points="0,0 25,0 25,12.5 0,12.5" fill="#0052CC" />
      <polygon points="25,12.5 50,12.5 50,25 25,25" fill="#0052CC" />
      
      <polygon points="25,0 50,0 50,12.5 25,12.5" fill="#FF7043" />
      <polygon points="0,12.5 25,12.5 25,25 0,25" fill="#FF7043" />
    </pattern>

    <g id="pin-ma70">
      <path d="M32 6                C20 6 10 16 10 28                C10 44 32 70 32 70                C32 70 54 44 54 28                C54 16 44 6 32 6 Z" fill="url(#ma70-pattern-nef)" stroke="#111" stroke-width="2" />
      <g transform="translate(22.4 17.0) scale(0.043)">
        <path fill="#FFFFFF" d="M224 8a120 120 0 1 0 0 240 120 120 0 1 0 0-240zm60 312.8c-5.4-.5-11-.8-16.6-.8l-86.9 0c-5.6 0-11.1 .3-16.6 .8l0 67.5c16.5 7.6 28 24.3 28 43.6 0 26.5-21.5 48-48 48s-48-21.5-48-48c0-19.4 11.5-36.1 28-43.6l0-58.4C61 353 16 413.6 16 484.6 16 499.7 28.3 512 43.4 512l361.1 0c15.1 0 27.4-12.3 27.4-27.4 0-71-45-131.5-108-154.6l0 37.4c23.3 8.2 40 30.5 40 56.6l0 32c0 11-9 20-20 20s-20-9-20-20l0-32c0-11-9-20-20-20s-20 9-20 20l0 32c0 11-9 20-20 20s-20-9-20-20l0-32c0-26.1 16.7-48.3 40-56.6l0-46.6z" />
      </g>
    </g>

    <g id="pin-juh">
      <use href="#pin-user-doctor" />
    </g>

  </defs>

  
  <g style="--fill:#FFD200; --icon:#111111;"><use href="#pin-user-doctor" />
    </g></svg>