<?xml version='1.0' encoding='utf-8'?>
<svg xmlns="http://www.w3.org/2000/svg" width="64" height="72" viewBox="0 0 64 72"><defs>
    <style>
      text{font-family: system-ui, -apple-system, Segoe UI, Roboto, Arial, sans-serif; font-size:14px; fill:#111}
      .label{font-weight:600}
      .sub{font-size:12px; fill:#333}
    </style>

    
    <pattern id="ma70-pattern" x="0" y="0" width="50" height="25" patternUnits="userSpaceOnUse">
      
      <polygon points="0,0 25,0 25,12.5 0,12.5" fill="#0052CC" />
      <polygon points="25,12.5 50,12.5 50,25 25,25" fill="#0052CC" />
      
      <polygon points="25,0 50,0 50,12.5 25,12.5" fill="#FF7043" />
      <polygon points="0,12.5 25,12.5 25,25 0,25" fill="#FF7043" />
    </pattern>
    
    
    <pattern id="ma70-pattern-skewed" x="0" y="0" width="50" height="25" patternUnits="userSpaceOnUse" patternTransform="skewX(-15)">
      
      <polygon points="0,0 25,0 25,12.5 0,12.5" fill="#0052CC" />
      <polygon points="25,12.5 50,12.5 50,25 25,25" fill="#0052CC" />
      
      <polygon points="25,0 50,0 50,12.5 25,12.5" fill="#FF7043" />
      <polygon points="0,12.5 25,12.5 25,25 0,25" fill="#FF7043" />
    </pattern>

    
    <g id="pin-ambulance">
      
      <path d="M32 6                C20 6 10 16 10 28                C10 44 32 70 32 70                C32 70 54 44 54 28                C54 16 44 6 32 6 Z" fill="#00A651" stroke="#111" stroke-width="2" />

      
      <g transform="translate(21 18.25) scale(0.0382)">
        <path fill="#FFFFFF" d="M64 32C28.7 32 0 60.7 0 96L0 384c0 35.3 28.7 64 64 64l3.3 0c10.4 36.9 44.4 64 84.7 64s74.2-27.1 84.7-64l102.6 0c10.4 36.9 44.4 64 84.7 64s74.2-27.1 84.7-64l3.3 0c35.3 0 64-28.7 64-64l0-146.7c0-17-6.7-33.3-18.7-45.3L512 146.7c-12-12-28.3-18.7-45.3-18.7l-50.7 0 0-32c0-35.3-28.7-64-64-64L64 32zM512 237.3l0 50.7-96 0 0-96 50.7 0 45.3 45.3zM152 384a40 40 0 1 1 0 80 40 40 0 1 1 0-80zm232 40a40 40 0 1 1 80 0 40 40 0 1 1 -80 0zM176 136c0-8.8 7.2-16 16-16l32 0c8.8 0 16 7.2 16 16l0 40 40 0c8.8 0 16 7.2 16 16l0 32c0 8.8-7.2 16-16 16l-40 0 0 40c0 8.8-7.2 16-16 16l-32 0c-8.8 0-16-7.2-16-16l0-40-40 0c-8.8 0-16-7.2-16-16l0-32c0-8.8 7.2-16 16-16l40 0 0-40z" />
      </g>
    </g>

    
    <g id="pin-ma70">
      
      <path d="M32 6                C20 6 10 16 10 28                C10 44 32 70 32 70                C32 70 54 44 54 28                C54 16 44 6 32 6 Z" fill="url(#ma70-pattern-skewed)" stroke="#111" stroke-width="2" />

      
      <g transform="translate(21 18.25) scale(0.0382)">
        <path fill="#FFFFFF" d="M64 32C28.7 32 0 60.7 0 96L0 384c0 35.3 28.7 64 64 64l3.3 0c10.4 36.9 44.4 64 84.7 64s74.2-27.1 84.7-64l102.6 0c10.4 36.9 44.4 64 84.7 64s74.2-27.1 84.7-64l3.3 0c35.3 0 64-28.7 64-64l0-146.7c0-17-6.7-33.3-18.7-45.3L512 146.7c-12-12-28.3-18.7-45.3-18.7l-50.7 0 0-32c0-35.3-28.7-64-64-64L64 32zM512 237.3l0 50.7-96 0 0-96 50.7 0 45.3 45.3zM152 384a40 40 0 1 1 0 80 40 40 0 1 1 0-80zm232 40a40 40 0 1 1 80 0 40 40 0 1 1 -80 0zM176 136c0-8.8 7.2-16 16-16l32 0c8.8 0 16 7.2 16 16l0 40 40 0c8.8 0 16 7.2 16 16l0 32c0 8.8-7.2 16-16 16l-40 0 0 40c0 8.8-7.2 16-16 16l-32 0c-8.8 0-16-7.2-16-16l0-40-40 0c-8.8 0-16-7.2-16-16l0-32c0-8.8 7.2-16 16-16l40 0 0-40z" />
      </g>
    </g>
  </defs>

  
  <g style="--fill:#00A651; --icon:#FFFFFF;"><use href="#pin-ambulance" />
    </g></svg>