<?xml version="1.0" encoding="UTF-8"?>
<svg xmlns="http://www.w3.org/2000/svg" width="64" height="80" viewBox="0 0 64 80">
  <!-- Pin -->
  <path d="M32 6
           C20 6 10 16 10 28
           C10 44 32 70 32 70
           C32 70 54 44 54 28
           C54 16 44 6 32 6 Z"
        fill="#1c8a43" stroke="#111111" stroke-width="2"/>

  <!-- Icon (dein SVG, viewBox 0 0 640 640) -->
  <g transform="translate(18.0 15.2) scale(0.043)">
    <path fill="#FFFFFF" d="M320.5 64C335.2 64 348.7 72.1 355.7 85L571.7 485C578.4 497.4 578.1 512.4 570.9 524.5C563.7 536.6 550.6 544 536.6 544L104.6 544C90.5 544 77.5 536.6 70.3 524.5C63.1 512.4 62.8 497.4 69.5 485L285.5 85L288.4 80.4C295.7 70.2 307.6 64 320.5 64zM234.4 313.9L261.2 340.7C267.4 346.9 277.6 346.9 283.8 340.7L327.1 297.4C333.1 291.4 341.2 288 349.7 288L392.5 288L320.4 154.5L234.3 313.9z"/>
  </g>
</svg>
